<svg id="Layer_1" data-name="Layer 1" xmlns="http://www.w3.org/2000/svg" viewBox="0 0 2184.67 265.57"><defs><style>.cls-1{fill:#1d1d1b;}</style></defs><title>Pure Logo Black</title><path class="cls-1" d="M542.32,1368.84l-1.54,0H415.56a7.88,7.88,0,0,0-7.88,7.88v40.05a7.87,7.87,0,0,0,7.49,7.86H542.09a33.47,33.47,0,0,1,0,66.95H415.55a7.88,7.88,0,0,0-7.88,7.87v23.72s0,.05,0,.08v100.17a7.88,7.88,0,0,0,7.87,7.88h40a7.88,7.88,0,0,0,7.87-7.88v-76h77l.39,0,1.42,0a89.27,89.27,0,1,0,0-178.54Z" transform="translate(-407.67 -1367.22)"/><path class="cls-1" d="M953.28,1376.72a7.88,7.88,0,0,0-7.87-7.88H905.35a7.88,7.88,0,0,0-7.88,7.88v45.63l-.18-.1v96h0c0,.32,0,.63,0,.95a56.24,56.24,0,1,1-112.47,0c0-.17,0-.35,0-.52s0-.1,0-.15v-96.16h0v-45.66a7.88,7.88,0,0,0-7.87-7.88H736.9a7.88,7.88,0,0,0-7.87,7.88V1518c0,.1,0,.2,0,.3,0,.34,0,.68,0,1a112.15,112.15,0,1,0,224.29,0c0-1.06,0-2.11,0-3.16Z" transform="translate(-407.67 -1367.22)"/><path class="cls-1" d="M1263.76,1525.69a89.27,89.27,0,0,0-58.34-156.85l-1.54,0H1073.57a7.88,7.88,0,0,0-7.88,7.88v40.05a7.87,7.87,0,0,0,7.49,7.86h132a33.47,33.47,0,0,1,0,66.95H1073.56a7.88,7.88,0,0,0-7.88,7.87v23.77s0,0,0,.08v100.17a7.88,7.88,0,0,0,7.88,7.88h40a7.88,7.88,0,0,0,7.88-7.88v-76.08h72.39a33.46,33.46,0,0,1,33,32.59v43.5a7.88,7.88,0,0,0,7.87,7.88h40.29a7.88,7.88,0,0,0,7.87-7.88s0-44.08,0-44.13A88.46,88.46,0,0,0,1263.76,1525.69Z" transform="translate(-407.67 -1367.22)"/><path class="cls-1" d="M1600.59,1368.85H1411.78a7.88,7.88,0,0,0-7.88,7.88v20.66h0v208.39h0v17.53a7.88,7.88,0,0,0,7.88,7.88h188.81a7.88,7.88,0,0,0,7.88-7.88v-40.05a7.88,7.88,0,0,0-7.88-7.87H1459.7v-45.52H1581a7.88,7.88,0,0,0,7.88-7.88V1482a7.88,7.88,0,0,0-7.88-7.87H1459.7v-49.43h140.89a7.88,7.88,0,0,0,7.88-7.88v-40.05A7.88,7.88,0,0,0,1600.59,1368.85Z" transform="translate(-407.67 -1367.22)"/><rect class="cls-1" x="1350.18" y="1.67" width="16.98" height="97.42"/><polygon class="cls-1" points="1496.03 69.03 1443.94 1.67 1428.11 1.67 1428.11 99.09 1445.09 99.09 1445.09 29.78 1498.7 99.09 1513.01 99.09 1513.01 1.67 1496.03 1.67 1496.03 69.03"/><path class="cls-1" d="M2055.25,1382.8a49.48,49.48,0,0,0-16.42-10.23,57.61,57.61,0,0,0-20.94-3.69h-36.32v97.42h36.32a56.65,56.65,0,0,0,20.94-3.76,50.37,50.37,0,0,0,16.42-10.3,45.36,45.36,0,0,0,10.65-15.45,48.9,48.9,0,0,0,3.76-19.21v-.28a48.41,48.41,0,0,0-3.76-19.14A45.56,45.56,0,0,0,2055.25,1382.8Zm-3.69,35.07a35.24,35.24,0,0,1-2.44,13.21,31,31,0,0,1-6.82,10.48,30.42,30.42,0,0,1-10.65,6.85,38,38,0,0,1-13.92,2.44h-19.21v-66.52h19.21a37,37,0,0,1,13.92,2.52,31.28,31.28,0,0,1,10.65,6.92,30.87,30.87,0,0,1,6.82,10.55,35.78,35.78,0,0,1,2.44,13.28Z" transform="translate(-407.67 -1367.22)"/><path class="cls-1" d="M2205.28,1382a49,49,0,0,0-16-10.79,52.1,52.1,0,0,0-20.6-4,50.76,50.76,0,0,0-36.74,15,49.11,49.11,0,0,0-10.58,16,50.46,50.46,0,0,0-3.76,19.41v.28a50.43,50.43,0,0,0,3.76,19.41,49.44,49.44,0,0,0,10.44,15.94,48.9,48.9,0,0,0,16,10.79,52.09,52.09,0,0,0,20.6,4,50.77,50.77,0,0,0,36.74-15,49.14,49.14,0,0,0,10.58-16,50.44,50.44,0,0,0,3.76-19.41v-.28a50.46,50.46,0,0,0-3.76-19.41A49.45,49.45,0,0,0,2205.28,1382Zm-3.9,35.9a36.64,36.64,0,0,1-2.43,13.36,34.13,34.13,0,0,1-6.72,10.92,31.36,31.36,0,0,1-10.32,7.38,33.4,33.4,0,0,1-26.54-.07,32.76,32.76,0,0,1-10.46-7.45,33.33,33.33,0,0,1-6.79-11,37.19,37.19,0,0,1-2.42-13.43v-.28a36.64,36.64,0,0,1,2.42-13.36,34.17,34.17,0,0,1,6.72-10.92,31.39,31.39,0,0,1,10.33-7.38,33.4,33.4,0,0,1,26.54.07,32.85,32.85,0,0,1,10.46,7.45,33.36,33.36,0,0,1,6.79,11,37.21,37.21,0,0,1,2.43,13.43Z" transform="translate(-407.67 -1367.22)"/><path class="cls-1" d="M2353.53,1382a49,49,0,0,0-16-10.79,52.09,52.09,0,0,0-20.6-4,50.76,50.76,0,0,0-36.74,15,49.1,49.1,0,0,0-10.58,16,50.44,50.44,0,0,0-3.76,19.41v.28a50.41,50.41,0,0,0,3.76,19.41,49.44,49.44,0,0,0,10.44,15.94,48.91,48.91,0,0,0,16,10.79,52.08,52.08,0,0,0,20.6,4,50.76,50.76,0,0,0,36.74-15,49.11,49.11,0,0,0,10.58-16,50.42,50.42,0,0,0,3.76-19.41v-.28a50.44,50.44,0,0,0-3.76-19.41A49.43,49.43,0,0,0,2353.53,1382Zm-3.9,35.9a36.69,36.69,0,0,1-2.43,13.36,34.16,34.16,0,0,1-6.72,10.92,31.38,31.38,0,0,1-10.32,7.38,33.4,33.4,0,0,1-26.54-.07,32.78,32.78,0,0,1-10.46-7.45,33.34,33.34,0,0,1-6.79-11,37.24,37.24,0,0,1-2.42-13.43v-.28a36.68,36.68,0,0,1,2.42-13.36,34.18,34.18,0,0,1,6.72-10.92,31.39,31.39,0,0,1,10.33-7.38,33.41,33.41,0,0,1,26.54.07,32.88,32.88,0,0,1,10.46,7.45,33.4,33.4,0,0,1,6.79,11,37.25,37.25,0,0,1,2.43,13.43Z" transform="translate(-407.67 -1367.22)"/><path class="cls-1" d="M2484.31,1425.46a28.93,28.93,0,0,0,7.31-6.26,28.27,28.27,0,0,0,4.8-8.49,31.52,31.52,0,0,0,1.74-10.79v-.28a31.61,31.61,0,0,0-2.09-11.69,28.24,28.24,0,0,0-6-9.32,32.77,32.77,0,0,0-11.83-7.17,47.63,47.63,0,0,0-16.28-2.58h-43.42v97.42h17v-34H2457l24,34h20.18l-26.3-36.88A36.14,36.14,0,0,0,2484.31,1425.46Zm-48.78-8.28v-32.84h25q9.63,0,14.94,4.12t5.31,12.09v.28a14.56,14.56,0,0,1-5.44,12q-5.44,4.4-14.66,4.4Z" transform="translate(-407.67 -1367.22)"/><path class="cls-1" d="M1820.17,1613.65a32.14,32.14,0,0,1-15.31,3.41,30.49,30.49,0,0,1-12.87-2.71,31.38,31.38,0,0,1-10.23-7.45,33.69,33.69,0,0,1-6.68-11.06,38,38,0,0,1-2.37-13.43v-.28a37.44,37.44,0,0,1,2.37-13.36,33.1,33.1,0,0,1,6.68-10.93,31.89,31.89,0,0,1,10.23-7.38,30.49,30.49,0,0,1,12.87-2.71,32.28,32.28,0,0,1,14.89,3.34,54.91,54.91,0,0,1,12.39,8.77l11-12.66a66.49,66.49,0,0,0-7.38-6.12,47.3,47.3,0,0,0-8.49-4.8,49.56,49.56,0,0,0-10.09-3.13A61.59,61.59,0,0,0,1805,1532a50.7,50.7,0,0,0-20.32,4,49,49,0,0,0-26.34,26.86,51.26,51.26,0,0,0-3.72,19.55v.28a51,51,0,0,0,3.79,19.62,48.84,48.84,0,0,0,45.9,30.48,60.8,60.8,0,0,0,12.46-1.18,44.57,44.57,0,0,0,10.37-3.48,51.94,51.94,0,0,0,8.84-5.43,62.62,62.62,0,0,0,7.86-7.17l-11-11.13A60.22,60.22,0,0,1,1820.17,1613.65Z" transform="translate(-407.67 -1367.22)"/><polygon class="cls-1" points="1526.2 209.62 1498.92 166.48 1478.74 166.48 1517.43 225.49 1517.43 263.9 1534.69 263.9 1534.69 225.07 1573.38 166.48 1553.76 166.48 1526.2 209.62"/><path class="cls-1" d="M2084.27,1613.65a32.14,32.14,0,0,1-15.31,3.41,30.49,30.49,0,0,1-12.87-2.71,31.38,31.38,0,0,1-10.23-7.45,33.7,33.7,0,0,1-6.68-11.06,38,38,0,0,1-2.37-13.43v-.28a37.46,37.46,0,0,1,2.37-13.36,33.1,33.1,0,0,1,6.68-10.93,31.88,31.88,0,0,1,10.23-7.38,30.49,30.49,0,0,1,12.87-2.71,32.28,32.28,0,0,1,14.89,3.34,54.91,54.91,0,0,1,12.39,8.77l11-12.66a66.41,66.41,0,0,0-7.38-6.12,47.25,47.25,0,0,0-8.49-4.8,49.56,49.56,0,0,0-10.09-3.13,61.59,61.59,0,0,0-12.18-1.11,50.7,50.7,0,0,0-20.32,4,49,49,0,0,0-26.34,26.86,51.24,51.24,0,0,0-3.72,19.55v.28a51,51,0,0,0,3.79,19.62,48.84,48.84,0,0,0,45.9,30.48,60.81,60.81,0,0,0,12.46-1.18,44.56,44.56,0,0,0,10.37-3.48,52,52,0,0,0,8.84-5.43,62.69,62.69,0,0,0,7.86-7.17l-11-11.13A60.19,60.19,0,0,1,2084.27,1613.65Z" transform="translate(-407.67 -1367.22)"/><polygon class="cls-1" points="1769.85 166.48 1752.87 166.48 1752.87 263.9 1821.06 263.9 1821.06 248.45 1769.85 248.45 1769.85 166.48"/><rect class="cls-1" x="1878.29" y="166.48" width="16.98" height="97.42"/><polygon class="cls-1" points="2024.92 233.84 1972.84 166.48 1957.01 166.48 1957.01 263.9 1973.99 263.9 1973.99 194.59 2027.6 263.9 2041.9 263.9 2041.9 166.48 2024.92 166.48 2024.92 233.84"/><path class="cls-1" d="M2550.86,1576.7v14.89h24.91v18.33a36.48,36.48,0,0,1-10.48,5.39,40.49,40.49,0,0,1-13,2,33.34,33.34,0,0,1-13.54-2.65,31.14,31.14,0,0,1-17.15-18.27,40,40,0,0,1-2.36-13.95v-.28a36.26,36.26,0,0,1,2.44-13.25,34.73,34.73,0,0,1,6.68-10.95,32.47,32.47,0,0,1,10-7.46,28.28,28.28,0,0,1,12.46-2.79,43.13,43.13,0,0,1,8.42.77,38,38,0,0,1,7,2.09,35.64,35.64,0,0,1,6.12,3.27,62,62,0,0,1,5.7,4.32l10.86-12.94a61.81,61.81,0,0,0-7.73-5.64,48.87,48.87,0,0,0-8.42-4.11,53.76,53.76,0,0,0-9.67-2.57,68.42,68.42,0,0,0-11.62-.91,50,50,0,0,0-36.22,15,49.12,49.12,0,0,0-10.44,16.07,51,51,0,0,0-3.72,19.34v.28a53.18,53.18,0,0,0,3.62,19.83,47.36,47.36,0,0,0,10.23,15.87A46.87,46.87,0,0,0,2531,1629a54.14,54.14,0,0,0,20.74,3.83,61.66,61.66,0,0,0,12.25-1.18,59.85,59.85,0,0,0,20.39-8.14,72.46,72.46,0,0,0,8-5.85V1576.7Z" transform="translate(-407.67 -1367.22)"/></svg>